<svg xmlns="http://www.w3.org/2000/svg" viewBox="0 0 150 37"><defs><style>.cls-1{fill:#ccc;}</style></defs><g id="Слой_1" data-name="Слой 1"><path class="cls-1" d="M5.64,10.38l.19-.2q1.2-.09,2.37-.12c.78,0,1.56,0,2.36,0h.21a8.88,8.88,0,0,1,2.16.26,4.33,4.33,0,0,1,1.66.78,3.53,3.53,0,0,1,1.05,1.4A5.19,5.19,0,0,1,16,14.54v.22a4.49,4.49,0,0,1-.4,2,3.9,3.9,0,0,1-1.11,1.43,4.94,4.94,0,0,1-1.69.88,7.22,7.22,0,0,1-2.13.29H7.44v5.51L7.26,25H5.83l-.19-.21ZM7.44,18h3.14a4.27,4.27,0,0,0,1.53-.25,3.56,3.56,0,0,0,1.15-.69A2.93,2.93,0,0,0,14,16a3.35,3.35,0,0,0,.24-1.28v-.22a3.27,3.27,0,0,0-.27-1.36,2.78,2.78,0,0,0-.73-1,3.17,3.17,0,0,0-1.13-.62,5.06,5.06,0,0,0-1.45-.24h-.21c-.5,0-1,0-1.49,0s-1,.07-1.49.12Z"/><path class="cls-1" d="M27.21,19.83a9.28,9.28,0,0,1-.28,2.45A4.31,4.31,0,0,1,26.08,24a3.48,3.48,0,0,1-1.41,1,5.76,5.76,0,0,1-1.94.31h-.27a5.8,5.8,0,0,1-2-.31,3.48,3.48,0,0,1-1.41-1,4.31,4.31,0,0,1-.85-1.67A9.28,9.28,0,0,1,18,19.83v-.41A9.2,9.2,0,0,1,18.24,17a4.43,4.43,0,0,1,.85-1.68,3.48,3.48,0,0,1,1.41-1,5.81,5.81,0,0,1,2-.3h.27a5.77,5.77,0,0,1,1.94.3,3.48,3.48,0,0,1,1.41,1A4.43,4.43,0,0,1,26.93,17a9.2,9.2,0,0,1,.28,2.44Zm-7.54,0a9.41,9.41,0,0,0,.17,2,3.09,3.09,0,0,0,.51,1.24,1.76,1.76,0,0,0,.88.64,3.78,3.78,0,0,0,1.23.19h.27a3.51,3.51,0,0,0,1.22-.2,1.76,1.76,0,0,0,.87-.66,3.36,3.36,0,0,0,.52-1.25,9.13,9.13,0,0,0,.17-2v-.41a9,9,0,0,0-.17-2,3.36,3.36,0,0,0-.52-1.25,1.88,1.88,0,0,0-.87-.66,3.29,3.29,0,0,0-1.22-.2h-.27a3.31,3.31,0,0,0-1.23.2,1.86,1.86,0,0,0-.88.66,3.2,3.2,0,0,0-.51,1.25,9,9,0,0,0-.17,2Z"/><path class="cls-1" d="M32.48,24.84l-.13.18a4,4,0,0,1-.64.13,5,5,0,0,1-.66.05,2.66,2.66,0,0,1-.82-.11,1.1,1.1,0,0,1-.53-.39,1.7,1.7,0,0,1-.28-.72,5.93,5.93,0,0,1-.09-1.13V10.08l.2-.2h1.33l.19.2V22.85c0,.22,0,.4,0,.53a1,1,0,0,0,.09.32.25.25,0,0,0,.13.15.48.48,0,0,0,.18,0l.31,0a2.51,2.51,0,0,0,.39-.07l.19.14Z"/><path class="cls-1" d="M33.94,10h1.34l.18.2V12l-.18.2H33.94l-.19-.2V10.18Zm1.34,4.24.18.2v10.4l-.18.22H33.94l-.19-.21V14.42l.19-.2Z"/><path class="cls-1" d="M43.29,14a3.84,3.84,0,0,1,1.36.22,2.39,2.39,0,0,1,1,.7,3.21,3.21,0,0,1,.62,1.24A6.85,6.85,0,0,1,46.47,18v6.81l-.2.21H44.94l-.18-.21V17.92A3.37,3.37,0,0,0,44.3,16,1.54,1.54,0,0,0,43,15.35h-.28a2.29,2.29,0,0,0-1.21.31,2.73,2.73,0,0,0-.87.82,3.69,3.69,0,0,0-.54,1.13,4.57,4.57,0,0,0-.18,1.26v6l-.19.21H38.37l-.2-.21V14.42l.2-.2h1.21l.24.2v1h.06a3.07,3.07,0,0,1,1.37-1.07A4.83,4.83,0,0,1,43,14Z"/><path class="cls-1" d="M53.17,15.35a4.32,4.32,0,0,0-.91.09,2.22,2.22,0,0,0-.72.29,1.44,1.44,0,0,0-.48.5,1.49,1.49,0,0,0-.21.72l-.21.19H49.3l-.16-.22a2.69,2.69,0,0,1,1.15-2.19,5.2,5.2,0,0,1,2.9-.69h.27a8.86,8.86,0,0,1,1.6.13,3.11,3.11,0,0,1,1.25.51,2.39,2.39,0,0,1,.8,1,4.12,4.12,0,0,1,.29,1.7v7.42l-.22.21H56l-.22-.21v-1.1h-.07a3.91,3.91,0,0,1-1.5,1.08,5,5,0,0,1-2,.39h-.28A4.68,4.68,0,0,1,50.59,25a3.12,3.12,0,0,1-1.06-.54,2.47,2.47,0,0,1-.71-.91,2.94,2.94,0,0,1-.25-1.27V22a2.72,2.72,0,0,1,.31-1.28,2.89,2.89,0,0,1,.92-1.06,4.64,4.64,0,0,1,1.48-.72,7.35,7.35,0,0,1,2-.26h2.38V17.37a2.84,2.84,0,0,0-.13-.94,1.37,1.37,0,0,0-.4-.63,1.71,1.71,0,0,0-.7-.35,4.17,4.17,0,0,0-1-.1ZM50.28,22.2a2.07,2.07,0,0,0,.1.68,1.55,1.55,0,0,0,.31.53,1.41,1.41,0,0,0,.51.35,2,2,0,0,0,.71.13h.28a3.66,3.66,0,0,0,1.31-.24A3.3,3.3,0,0,0,54.62,23a3.46,3.46,0,0,0,.78-1.11,3.92,3.92,0,0,0,.29-1.54V20H53.36a4.14,4.14,0,0,0-2.33.53A1.69,1.69,0,0,0,50.28,22Z"/><path class="cls-1" d="M71.8,11.31a6,6,0,0,0-2.11.33,3.33,3.33,0,0,0-1.44,1,4.54,4.54,0,0,0-.84,1.81,11.41,11.41,0,0,0-.27,2.66v.93a12,12,0,0,0,.25,2.67,4.63,4.63,0,0,0,.77,1.81,3.12,3.12,0,0,0,1.39,1,5.84,5.84,0,0,0,2.09.33h.57a5.68,5.68,0,0,0,1.2-.14,6.8,6.8,0,0,0,1.19-.35,7,7,0,0,0,1.06-.53,3.68,3.68,0,0,0,.81-.66V18.92H72.38l-.19-.2v-.91l.19-.2h5.8v5.46a7.22,7.22,0,0,1-2.72,1.64,10.11,10.11,0,0,1-3.25.51h-.57a9.33,9.33,0,0,1-2.86-.39,4.53,4.53,0,0,1-2-1.24,5.34,5.34,0,0,1-1.15-2.21,12.61,12.61,0,0,1-.38-3.31v-.93q0-3.63,1.59-5.38A6.31,6.31,0,0,1,71.76,10h.56a10.17,10.17,0,0,1,2.17.22,5.55,5.55,0,0,1,1.84.7,3.86,3.86,0,0,1,1.3,1.24A3.73,3.73,0,0,1,78.18,14l-.18.21H76.61L76.4,14A2.23,2.23,0,0,0,76,12.8,2.69,2.69,0,0,0,75.1,12a4.27,4.27,0,0,0-1.3-.48,7,7,0,0,0-1.53-.16Z"/><path class="cls-1" d="M89.58,19.83a8.85,8.85,0,0,1-.29,2.45A4.18,4.18,0,0,1,88.44,24a3.38,3.38,0,0,1-1.4,1,5.78,5.78,0,0,1-2,.31h-.27a5.78,5.78,0,0,1-1.95-.31,3.35,3.35,0,0,1-1.41-1,4.18,4.18,0,0,1-.85-1.67,9.25,9.25,0,0,1-.29-2.45v-.41A9.17,9.17,0,0,1,80.61,17a4.29,4.29,0,0,1,.85-1.68,3.35,3.35,0,0,1,1.41-1,5.79,5.79,0,0,1,1.95-.3h.27a5.79,5.79,0,0,1,2,.3,3.38,3.38,0,0,1,1.4,1A4.29,4.29,0,0,1,89.29,17a8.78,8.78,0,0,1,.29,2.44Zm-7.55,0a10.11,10.11,0,0,0,.17,2,3.24,3.24,0,0,0,.52,1.24,1.78,1.78,0,0,0,.87.64,3.78,3.78,0,0,0,1.23.19h.27a3.52,3.52,0,0,0,1.23-.2,1.78,1.78,0,0,0,.86-.66,3.36,3.36,0,0,0,.53-1.25,9.81,9.81,0,0,0,.17-2v-.41a9.71,9.71,0,0,0-.17-2,3.36,3.36,0,0,0-.53-1.25,1.91,1.91,0,0,0-.86-.66,3.31,3.31,0,0,0-1.23-.2h-.27a3.31,3.31,0,0,0-1.23.2,1.88,1.88,0,0,0-.87.66,3.36,3.36,0,0,0-.52,1.25,9.71,9.71,0,0,0-.17,2Z"/><path class="cls-1" d="M94.84,24.84l-.13.18a3.68,3.68,0,0,1-.63.13,5.16,5.16,0,0,1-.67.05,2.71,2.71,0,0,1-.82-.11,1.08,1.08,0,0,1-.52-.39,1.7,1.7,0,0,1-.29-.72,7,7,0,0,1-.08-1.13V10.08l.2-.2h1.33l.18.2V22.85a3.7,3.7,0,0,0,0,.53,1.48,1.48,0,0,0,.08.32.28.28,0,0,0,.13.15.48.48,0,0,0,.18,0l.32,0a2.73,2.73,0,0,0,.39-.07l.19.14Z"/><path class="cls-1" d="M102.79,24.83v-.77h-.12a2.56,2.56,0,0,1-.65.63,2.64,2.64,0,0,1-.74.35,3.61,3.61,0,0,1-.82.15c-.28,0-.58,0-.89,0h-.22A4.2,4.2,0,0,1,97.9,25a2.37,2.37,0,0,1-1-.74A3.33,3.33,0,0,1,96.29,23a7.77,7.77,0,0,1-.19-1.86v-6.7l.18-.2h1.33l.2.2v6.66a7.21,7.21,0,0,0,.1,1.33,2.33,2.33,0,0,0,.33.87,1.24,1.24,0,0,0,.56.48,2.1,2.1,0,0,0,.84.15h.21a2.8,2.8,0,0,0,1.27-.28,2.34,2.34,0,0,0,.88-.77,3.41,3.41,0,0,0,.51-1.16,6.36,6.36,0,0,0,.16-1.49V14.42l.2-.2h1.32l.19.2V24.83l-.19.21H103Z"/><path class="cls-1" d="M111.64,25.22a5.29,5.29,0,0,1-.8-.06,3.37,3.37,0,0,1-.77-.21,2.86,2.86,0,0,1-.68-.39,2.56,2.56,0,0,1-.56-.62h-.08v.89l-.16.21h-1.27l-.21-.21V10.08l.2-.2h1.33l.18.2v5.29h.06a4.59,4.59,0,0,1,1.41-1,3.44,3.44,0,0,1,1.35-.28h.28a4.71,4.71,0,0,1,1.8.31,3,3,0,0,1,1.26,1A4.44,4.44,0,0,1,115.7,17a10.48,10.48,0,0,1,.24,2.39v.41a7.08,7.08,0,0,1-1,4.11,3.53,3.53,0,0,1-3.06,1.34Zm-2.82-5.68A8.63,8.63,0,0,0,109,21.4a4.66,4.66,0,0,0,.53,1.37,2.43,2.43,0,0,0,.85.84,2.22,2.22,0,0,0,1.15.3h.29a2.58,2.58,0,0,0,1.09-.21,1.66,1.66,0,0,0,.75-.69,3.69,3.69,0,0,0,.44-1.27,11.93,11.93,0,0,0,.14-2v-.41a9.68,9.68,0,0,0-.16-1.95,3.74,3.74,0,0,0-.44-1.23,1.67,1.67,0,0,0-.73-.65,2.57,2.57,0,0,0-1-.18h-.28a2.08,2.08,0,0,0-1.21.36,3.07,3.07,0,0,0-.87.92,4.83,4.83,0,0,0-.55,1.29,5.7,5.7,0,0,0-.19,1.41Z"/><path class="cls-1" d="M122.05,25.22a6.48,6.48,0,0,1-2-.28,3.35,3.35,0,0,1-1.43-.91,4.06,4.06,0,0,1-.88-1.65,9,9,0,0,1-.3-2.51v-.4a8.76,8.76,0,0,1,.31-2.52,4.47,4.47,0,0,1,.88-1.68,3.32,3.32,0,0,1,1.43-.94A5.7,5.7,0,0,1,122,14h.37a4.61,4.61,0,0,1,3.36,1.07,4.24,4.24,0,0,1,1.1,3.17,1.83,1.83,0,0,1-.58,1.51,3.24,3.24,0,0,1-1.94.45h-5.14a7.79,7.79,0,0,0,.14,1.52,3.23,3.23,0,0,0,.47,1.15,2.25,2.25,0,0,0,.88.73,3.13,3.13,0,0,0,1.37.27h.26c.35,0,.68,0,1,0a3,3,0,0,0,.85-.2,1.52,1.52,0,0,0,.63-.46,1.72,1.72,0,0,0,.36-.84l.3-.21,1.14.12.17.25a4.16,4.16,0,0,1-.55,1.34,2.56,2.56,0,0,1-.91.82,3.93,3.93,0,0,1-1.28.42,12.13,12.13,0,0,1-1.7.11ZM122,15.35a3.44,3.44,0,0,0-1.2.19,1.94,1.94,0,0,0-.87.62,2.74,2.74,0,0,0-.53,1.11,6.11,6.11,0,0,0-.19,1.66h5.1a.88.88,0,0,0,.68-.19.77.77,0,0,0,.17-.53,3.59,3.59,0,0,0-.22-1.36,2.1,2.1,0,0,0-1.48-1.36,4.46,4.46,0,0,0-1.12-.14Z"/><path class="cls-1" d="M131.49,25l-3.74-10.62.16-.2h1.58l3,8.72h.06l3-8.72h1.58l.17.2L133.62,25Z"/><path class="cls-1" d="M142.9,15.35a4.32,4.32,0,0,0-.91.09,2.31,2.31,0,0,0-.72.29,1.44,1.44,0,0,0-.48.5,1.49,1.49,0,0,0-.21.72l-.21.19H139l-.16-.22A2.69,2.69,0,0,1,140,14.73a5.2,5.2,0,0,1,2.9-.69h.27a8.86,8.86,0,0,1,1.6.13,3.11,3.11,0,0,1,1.25.51,2.39,2.39,0,0,1,.8,1,4.12,4.12,0,0,1,.29,1.7v7.42l-.22.21h-1.2l-.22-.21v-1.1h-.07a3.91,3.91,0,0,1-1.5,1.08,5,5,0,0,1-2,.39h-.28a4.68,4.68,0,0,1-1.32-.18,3.12,3.12,0,0,1-1.06-.54,2.58,2.58,0,0,1-.71-.91,2.94,2.94,0,0,1-.25-1.27V22a2.72,2.72,0,0,1,.31-1.28,2.89,2.89,0,0,1,.92-1.06,4.64,4.64,0,0,1,1.48-.72,7.35,7.35,0,0,1,2-.26h2.38V17.37a2.84,2.84,0,0,0-.13-.94,1.37,1.37,0,0,0-.4-.63,1.71,1.71,0,0,0-.7-.35,4.17,4.17,0,0,0-1-.1ZM140,22.2a2.07,2.07,0,0,0,.1.68,1.55,1.55,0,0,0,.31.53,1.41,1.41,0,0,0,.51.35,2,2,0,0,0,.71.13h.28a3.66,3.66,0,0,0,1.31-.24,3.3,3.3,0,0,0,1.12-.68,3.46,3.46,0,0,0,.78-1.11,3.92,3.92,0,0,0,.29-1.54V20h-2.33a4.14,4.14,0,0,0-2.33.53A1.69,1.69,0,0,0,140,22Z"/></g></svg>